<mxfile host="65bd71144e">
    <diagram id="fECts557okDQ3qRtLXVx" name="Страница 1">
        <mxGraphModel dx="124" dy="77" grid="1" gridSize="10" guides="1" tooltips="1" connect="1" arrows="1" fold="1" page="1" pageScale="1" pageWidth="827" pageHeight="1169" math="0" shadow="0">
            <root>
                <mxCell id="0"/>
                <mxCell id="1" parent="0"/>
                <mxCell id="2" value="${7*7}" style="rounded=1;whiteSpace=wrap;fillColor=#1ba1e2;fontColor=#ffffff;strokeColor=#006EAF;" parent="1" vertex="1">
                    <mxGeometry x="384" y="120" width="167" height="50" as="geometry"/>
                </mxCell>
                <mxCell id="37" value="" style="endArrow=classic;html=1;endSize=8;startSize=8;jumpSize=7;strokeWidth=2;rounded=1;exitX=1;exitY=0.5;exitDx=0;exitDy=0;fillColor=#60a917;strokeColor=#2D7600;entryX=0.57;entryY=-0.02;entryDx=0;entryDy=0;entryPerimeter=0;" edge="1" parent="1" source="2" target="38">
                    <mxGeometry width="50" height="50" relative="1" as="geometry">
                        <mxPoint x="570" y="140" as="sourcePoint"/>
                        <mxPoint x="630" y="180" as="targetPoint"/>
                        <Array as="points">
                            <mxPoint x="640" y="145"/>
                            <mxPoint x="641" y="160"/>
                            <mxPoint x="641" y="180"/>
                        </Array>
                    </mxGeometry>
                </mxCell>
                <mxCell id="38" value="a{*comment*}b" style="rounded=1;whiteSpace=wrap;fillColor=#1ba1e2;fontColor=#ffffff;strokeColor=#006EAF;" vertex="1" parent="1">
                    <mxGeometry x="580" y="190" width="108" height="50" as="geometry"/>
                </mxCell>
                <mxCell id="39" value="{{7*7}}" style="rounded=1;whiteSpace=wrap;fillColor=#1ba1e2;fontColor=#ffffff;strokeColor=#006EAF;" vertex="1" parent="1">
                    <mxGeometry x="259" y="190" width="102" height="50" as="geometry"/>
                </mxCell>
                <mxCell id="40" value="" style="endArrow=classic;html=1;endSize=8;startSize=8;jumpSize=7;strokeWidth=2;rounded=1;entryX=0.494;entryY=-0.018;entryDx=0;entryDy=0;fillColor=#d80073;strokeColor=#A50040;exitX=0;exitY=0.5;exitDx=0;exitDy=0;entryPerimeter=0;" edge="1" parent="1" source="2" target="39">
                    <mxGeometry width="50" height="50" relative="1" as="geometry">
                        <mxPoint x="318" y="145" as="sourcePoint"/>
                        <mxPoint x="231.18000000000006" y="189.99999999999997" as="targetPoint"/>
                        <Array as="points">
                            <mxPoint x="310" y="145"/>
                        </Array>
                    </mxGeometry>
                </mxCell>
                <mxCell id="43" value="{{7*'7'}}" style="rounded=1;whiteSpace=wrap;fillColor=#1ba1e2;fontColor=#ffffff;strokeColor=#006EAF;" vertex="1" parent="1">
                    <mxGeometry x="185" y="250" width="102" height="50" as="geometry"/>
                </mxCell>
                <mxCell id="44" value="Не уязвимый" style="rounded=1;whiteSpace=wrap;fillColor=#a20025;fontColor=#ffffff;strokeColor=#6F0000;" vertex="1" parent="1">
                    <mxGeometry x="334" y="250" width="102" height="50" as="geometry"/>
                </mxCell>
                <mxCell id="45" value="" style="endArrow=classic;html=1;endSize=8;startSize=8;jumpSize=7;strokeWidth=2;rounded=1;exitX=0;exitY=0.5;exitDx=0;exitDy=0;entryX=0.54;entryY=0.003;entryDx=0;entryDy=0;entryPerimeter=0;fillColor=#60a917;strokeColor=#2D7600;" edge="1" parent="1" source="39">
                    <mxGeometry width="50" height="50" relative="1" as="geometry">
                        <mxPoint x="138" y="204.84999999999988" as="sourcePoint"/>
                        <mxPoint x="228.18000000000006" y="249.99999999999997" as="targetPoint"/>
                        <Array as="points">
                            <mxPoint x="228" y="215"/>
                            <mxPoint x="228" y="239.85"/>
                        </Array>
                    </mxGeometry>
                </mxCell>
                <mxCell id="46" value="" style="endArrow=classic;html=1;endSize=8;startSize=8;jumpSize=7;strokeWidth=2;rounded=1;exitX=1;exitY=0.5;exitDx=0;exitDy=0;entryX=0.54;entryY=0.003;entryDx=0;entryDy=0;entryPerimeter=0;fillColor=#a20025;strokeColor=#6F0000;" edge="1" parent="1" source="39">
                    <mxGeometry width="50" height="50" relative="1" as="geometry">
                        <mxPoint x="298" y="204.84999999999988" as="sourcePoint"/>
                        <mxPoint x="388.18000000000006" y="249.99999999999997" as="targetPoint"/>
                        <Array as="points">
                            <mxPoint x="388" y="215"/>
                            <mxPoint x="388" y="230"/>
                            <mxPoint x="388" y="239.85"/>
                        </Array>
                    </mxGeometry>
                </mxCell>
                <mxCell id="47" value="Jinja2" style="rounded=1;whiteSpace=wrap;fillColor=#6d8764;fontColor=#ffffff;strokeColor=#3A5431;" vertex="1" parent="1">
                    <mxGeometry x="63.5" y="350" width="102" height="50" as="geometry"/>
                </mxCell>
                <mxCell id="48" value="Twig" style="rounded=1;whiteSpace=wrap;fillColor=#6d8764;fontColor=#ffffff;strokeColor=#3A5431;" vertex="1" parent="1">
                    <mxGeometry x="183.5" y="350" width="102" height="50" as="geometry"/>
                </mxCell>
                <mxCell id="49" value="Неизвестный" style="rounded=1;whiteSpace=wrap;fillColor=#f0a30a;fontColor=#000000;strokeColor=#BD7000;" vertex="1" parent="1">
                    <mxGeometry x="306.5" y="350" width="102" height="50" as="geometry"/>
                </mxCell>
                <mxCell id="50" value="" style="endArrow=classic;html=1;endSize=8;startSize=8;jumpSize=7;strokeWidth=2;rounded=1;exitX=0;exitY=0.5;exitDx=0;exitDy=0;entryX=0.5;entryY=0;entryDx=0;entryDy=0;fillColor=#60a917;strokeColor=#2D7600;" edge="1" parent="1" target="47">
                    <mxGeometry width="50" height="50" relative="1" as="geometry">
                        <mxPoint x="183.5" y="280" as="sourcePoint"/>
                        <mxPoint x="152.68000000000006" y="315" as="targetPoint"/>
                        <Array as="points">
                            <mxPoint x="115" y="280"/>
                            <mxPoint x="115" y="310"/>
                        </Array>
                    </mxGeometry>
                </mxCell>
                <mxCell id="51" value="" style="endArrow=classic;html=1;endSize=8;startSize=8;jumpSize=7;strokeWidth=2;rounded=1;entryX=0.54;entryY=0.003;entryDx=0;entryDy=0;entryPerimeter=0;fillColor=#60a917;strokeColor=#2D7600;" edge="1" parent="1">
                    <mxGeometry width="50" height="50" relative="1" as="geometry">
                        <mxPoint x="238" y="300" as="sourcePoint"/>
                        <mxPoint x="238.18000000000006" y="350" as="targetPoint"/>
                        <Array as="points">
                            <mxPoint x="238" y="315"/>
                            <mxPoint x="238" y="339.85"/>
                        </Array>
                    </mxGeometry>
                </mxCell>
                <mxCell id="52" value="" style="endArrow=classic;html=1;endSize=8;startSize=8;jumpSize=7;strokeWidth=2;rounded=1;entryX=0.5;entryY=0;entryDx=0;entryDy=0;fillColor=#d80073;strokeColor=#A50040;" edge="1" parent="1" target="49">
                    <mxGeometry width="50" height="50" relative="1" as="geometry">
                        <mxPoint x="288" y="280" as="sourcePoint"/>
                        <mxPoint x="450" y="385" as="targetPoint"/>
                        <Array as="points">
                            <mxPoint x="308" y="280"/>
                            <mxPoint x="308" y="320"/>
                            <mxPoint x="358" y="320"/>
                        </Array>
                    </mxGeometry>
                </mxCell>
                <mxCell id="53" value="Smarty" style="rounded=1;whiteSpace=wrap;fillColor=#6d8764;fontColor=#ffffff;strokeColor=#3A5431;" vertex="1" parent="1">
                    <mxGeometry x="660" y="250" width="108" height="50" as="geometry"/>
                </mxCell>
                <mxCell id="54" value="" style="endArrow=classic;html=1;endSize=8;startSize=8;jumpSize=7;strokeWidth=2;rounded=1;exitX=1;exitY=0.5;exitDx=0;exitDy=0;entryX=0.56;entryY=-0.027;entryDx=0;entryDy=0;fillColor=#60a917;strokeColor=#2D7600;entryPerimeter=0;" edge="1" parent="1" target="53">
                    <mxGeometry width="50" height="50" relative="1" as="geometry">
                        <mxPoint x="690" y="215" as="sourcePoint"/>
                        <mxPoint x="717.1800000000001" y="250" as="targetPoint"/>
                        <Array as="points">
                            <mxPoint x="720" y="215"/>
                        </Array>
                    </mxGeometry>
                </mxCell>
                <mxCell id="55" value="${&quot;z&quot;.join(&quot;ab&quot;)}" style="rounded=1;whiteSpace=wrap;fillColor=#1ba1e2;fontColor=#ffffff;strokeColor=#006EAF;" vertex="1" parent="1">
                    <mxGeometry x="510" y="250" width="108" height="50" as="geometry"/>
                </mxCell>
                <mxCell id="56" value="" style="endArrow=classic;html=1;endSize=8;startSize=8;jumpSize=7;strokeWidth=2;rounded=1;entryX=0.5;entryY=0;entryDx=0;entryDy=0;fillColor=#d80073;strokeColor=#A50040;exitX=0;exitY=0.5;exitDx=0;exitDy=0;" edge="1" parent="1" target="55">
                    <mxGeometry width="50" height="50" relative="1" as="geometry">
                        <mxPoint x="580" y="210" as="sourcePoint"/>
                        <mxPoint x="395.96000000000004" y="254.35000000000002" as="targetPoint"/>
                        <Array as="points">
                            <mxPoint x="564" y="210"/>
                        </Array>
                    </mxGeometry>
                </mxCell>
                <mxCell id="57" value="Mako" style="rounded=1;whiteSpace=wrap;fillColor=#6d8764;fontColor=#ffffff;strokeColor=#3A5431;" vertex="1" parent="1">
                    <mxGeometry x="443" y="350" width="108" height="50" as="geometry"/>
                </mxCell>
                <mxCell id="58" value="Неизвестный" style="rounded=1;whiteSpace=wrap;fillColor=#f0a30a;fontColor=#000000;strokeColor=#BD7000;" vertex="1" parent="1">
                    <mxGeometry x="583" y="350" width="102" height="50" as="geometry"/>
                </mxCell>
                <mxCell id="59" value="" style="endArrow=classic;html=1;endSize=8;startSize=8;jumpSize=7;strokeWidth=2;rounded=1;exitX=0;exitY=0.5;exitDx=0;exitDy=0;entryX=0.434;entryY=-0.022;entryDx=0;entryDy=0;fillColor=#60a917;strokeColor=#2D7600;entryPerimeter=0;" edge="1" parent="1">
                    <mxGeometry width="50" height="50" relative="1" as="geometry">
                        <mxPoint x="510" y="270" as="sourcePoint"/>
                        <mxPoint x="487.87200000000007" y="348.9" as="targetPoint"/>
                        <Array as="points">
                            <mxPoint x="488" y="270"/>
                            <mxPoint x="488" y="300"/>
                        </Array>
                    </mxGeometry>
                </mxCell>
                <mxCell id="60" value="" style="endArrow=classic;html=1;endSize=8;startSize=8;jumpSize=7;strokeWidth=2;rounded=1;entryX=0.559;entryY=-0.027;entryDx=0;entryDy=0;fillColor=#d80073;strokeColor=#A50040;entryPerimeter=0;" edge="1" parent="1">
                    <mxGeometry width="50" height="50" relative="1" as="geometry">
                        <mxPoint x="618" y="270" as="sourcePoint"/>
                        <mxPoint x="638.018" y="348.65" as="targetPoint"/>
                        <Array as="points">
                            <mxPoint x="638" y="270"/>
                        </Array>
                    </mxGeometry>
                </mxCell>
            </root>
        </mxGraphModel>
    </diagram>
</mxfile>